<svg width="1600" height="960" viewBox="0 0 1600 960" fill="none" xmlns="http://www.w3.org/2000/svg">
  <rect width="1600" height="960" rx="36" fill="#0B0F0D"/>
  <rect x="48" y="48" width="1504" height="864" rx="28" fill="#101713" stroke="#294238" stroke-width="2"/>
  <rect x="80" y="80" width="1440" height="72" rx="18" fill="#121C17"/>
  <rect x="112" y="100" width="194" height="14" rx="7" fill="#4ADE80"/>
  <rect x="112" y="122" width="260" height="10" rx="5" fill="#284236"/>
  <rect x="1294" y="96" width="186" height="40" rx="14" fill="#173A28"/>
  <rect x="80" y="184" width="316" height="676" rx="24" fill="#111A15"/>
  <rect x="112" y="224" width="120" height="18" rx="9" fill="#E6F9EC"/>
  <rect x="112" y="258" width="156" height="14" rx="7" fill="#2F463A"/>
  <rect x="112" y="316" width="252" height="80" rx="18" fill="#12221A"/>
  <rect x="132" y="340" width="100" height="12" rx="6" fill="#4ADE80"/>
  <rect x="132" y="366" width="180" height="10" rx="5" fill="#385346"/>
  <rect x="112" y="426" width="252" height="80" rx="18" fill="#12221A"/>
  <rect x="132" y="450" width="82" height="12" rx="6" fill="#D7FBE3"/>
  <rect x="132" y="476" width="166" height="10" rx="5" fill="#385346"/>
  <rect x="112" y="536" width="252" height="80" rx="18" fill="#12221A"/>
  <rect x="132" y="560" width="122" height="12" rx="6" fill="#D7FBE3"/>
  <rect x="132" y="586" width="174" height="10" rx="5" fill="#385346"/>
  <rect x="428" y="184" width="1092" height="240" rx="24" fill="#111A15"/>
  <rect x="460" y="220" width="248" height="18" rx="9" fill="#E6F9EC"/>
  <rect x="460" y="254" width="144" height="14" rx="7" fill="#2F463A"/>
  <rect x="460" y="308" width="240" height="84" rx="20" fill="#173A28"/>
  <text x="580" y="358" text-anchor="middle" fill="#08120C" font-family="Segoe UI, Arial, sans-serif" font-size="36" font-weight="700">08:42</text>
  <rect x="736" y="308" width="240" height="84" rx="20" fill="#12221A" stroke="#284235" stroke-width="2"/>
  <text x="856" y="358" text-anchor="middle" fill="#E6F9EC" font-family="Segoe UI, Arial, sans-serif" font-size="36" font-weight="700">2.3 KM</text>
  <rect x="1012" y="308" width="240" height="84" rx="20" fill="#12221A"/>
  <text x="1132" y="358" text-anchor="middle" fill="#E6F9EC" font-family="Segoe UI, Arial, sans-serif" font-size="36" font-weight="700">RM 640</text>
  <rect x="1288" y="308" width="200" height="84" rx="20" fill="#12221A"/>
  <text x="1388" y="358" text-anchor="middle" fill="#E6F9EC" font-family="Segoe UI, Arial, sans-serif" font-size="30" font-weight="700">3 Claims</text>
  <rect x="428" y="456" width="720" height="404" rx="24" fill="#111A15"/>
  <rect x="460" y="492" width="190" height="18" rx="9" fill="#E6F9EC"/>
  <rect x="460" y="526" width="128" height="14" rx="7" fill="#2F463A"/>
  <rect x="460" y="584" width="656" height="58" rx="20" fill="#12221A" stroke="#284235" stroke-width="2"/>
  <rect x="488" y="606" width="170" height="14" rx="7" fill="#4ADE80"/>
  <rect x="774" y="602" width="136" height="22" rx="11" fill="#173A28"/>
  <rect x="460" y="666" width="656" height="58" rx="20" fill="#12221A"/>
  <rect x="488" y="688" width="190" height="14" rx="7" fill="#D7FBE3"/>
  <rect x="460" y="748" width="656" height="58" rx="20" fill="#12221A"/>
  <rect x="488" y="770" width="144" height="14" rx="7" fill="#D7FBE3"/>
  <rect x="1180" y="456" width="340" height="404" rx="24" fill="#111A15"/>
  <rect x="1212" y="492" width="138" height="18" rx="9" fill="#E6F9EC"/>
  <rect x="1212" y="526" width="180" height="14" rx="7" fill="#2F463A"/>
  <rect x="1212" y="582" width="276" height="204" rx="20" fill="#12221A"/>
  <path d="M1260 720C1300 630 1360 620 1400 560C1420 530 1446 522 1464 530" stroke="#4ADE80" stroke-width="10" stroke-linecap="round"/>
  <circle cx="1260" cy="720" r="10" fill="#4ADE80"/>
  <circle cx="1400" cy="560" r="10" fill="#4ADE80"/>
  <circle cx="1464" cy="530" r="10" fill="#4ADE80"/>
  <rect x="1212" y="806" width="176" height="14" rx="7" fill="#D7FBE3"/>
</svg>
